<?xml version="1.0" standalone="no"?>
<!DOCTYPE svg PUBLIC "-//W3C//DTD SVG 20010904//EN"
 "http://www.w3.org/TR/2001/REC-SVG-20010904/DTD/svg10.dtd">
<svg version="1.0" xmlns="http://www.w3.org/2000/svg"
 width="1280.000000pt" height="640.000000pt" viewBox="0 0 1280.000000 640.000000"
 preserveAspectRatio="xMidYMid meet">
<metadata>
Created by potrace 1.15, written by Peter Selinger 2001-2017
</metadata>
<g transform="translate(0.000000,640.000000) scale(0.100000,-0.100000)"
fill="#000000" stroke="none">
<path d="M12305 4853 c-866 -548 -1883 -1139 -2532 -1472 l-101 -52 -239 119
c-1644 823 -3117 1324 -4358 1482 -554 70 -1110 79 -1590 24 -1215 -137 -2263
-644 -3315 -1603 -69 -63 -127 -116 -129 -117 -2 -2 2 -10 9 -19 10 -12 10
-18 0 -30 -7 -9 -11 -17 -9 -19 2 -1 60 -54 129 -117 982 -895 1945 -1388
3065 -1569 553 -89 1186 -93 1840 -10 1241 158 2714 659 4358 1482 l239 119
101 -52 c649 -333 1629 -902 2515 -1462 280 -176 335 -208 346 -196 7 8 35 50
63 95 l50 81 -196 123 c-108 68 -279 176 -381 240 -594 373 -1425 857 -2027
1180 -117 63 -213 117 -213 120 0 3 96 57 213 120 602 323 1433 807 2027 1180
102 64 273 172 381 240 l196 123 -57 91 c-31 49 -61 91 -66 93 -5 1 -148 -86
-319 -194z m-7534 -117 c1202 -126 2387 -482 3896 -1172 253 -115 743 -356
743 -364 0 -4 -125 -68 -277 -143 -1575 -770 -2971 -1230 -4163 -1371 -305
-36 -402 -41 -800 -41 -428 0 -542 7 -845 51 -916 135 -1743 503 -2545 1134
-214 168 -425 352 -425 370 0 18 211 202 425 370 711 559 1441 911 2238 1080
172 36 437 75 607 89 72 6 148 13 170 15 105 10 839 -3 976 -18z"/>
</g>
</svg>
